<?xml version="1.0" encoding="utf-8"?>
<!-- Generator: Adobe Illustrator 21.1.0, SVG Export Plug-In . SVG Version: 6.00 Build 0)  -->
<svg version="1.1" id="katman_1" xmlns="http://www.w3.org/2000/svg" xmlns:xlink="http://www.w3.org/1999/xlink" x="0px" y="0px"
	 viewBox="0 0 1244.9 451.5" style="enable-background:new 0 0 1244.9 451.5;" xml:space="preserve">
<g>
	<path d="M228.2,150.5V301h-13.8v-18.7c-5.9,7.1-12.4,12.5-19.7,16.1c-7.3,3.6-15.3,5.4-23.9,5.4c-15.4,0-28.5-5.6-39.4-16.7
		c-10.9-11.1-16.3-24.7-16.3-40.7c0-15.6,5.5-29,16.5-40.1c11-11.1,24.2-16.7,39.6-16.7c8.9,0,17,1.9,24.2,5.7
		c7.2,3.8,13.6,9.5,19,17.1v-61.9H228.2z M172.4,203.1c-7.8,0-15,1.9-21.5,5.7c-6.6,3.8-11.8,9.2-15.7,16.1
		c-3.9,6.9-5.8,14.2-5.8,21.9c0,7.6,2,15,5.9,21.9c3.9,7,9.2,12.4,15.8,16.3c6.6,3.9,13.7,5.8,21.3,5.8c7.6,0,14.9-1.9,21.7-5.8
		c6.8-3.9,12.1-9.1,15.8-15.7c3.7-6.6,5.5-14,5.5-22.2c0-12.6-4.1-23.1-12.4-31.5C194.7,207.3,184.5,203.1,172.4,203.1z"/>
	<path d="M311.3,189.6c16.7,0,30.6,6.1,41.6,18.2c10,11,15,24.1,15,39.2c0,15.2-5.3,28.4-15.8,39.8c-10.6,11.3-24.1,17-40.7,17
		c-16.7,0-30.3-5.7-40.8-17c-10.6-11.3-15.8-24.6-15.8-39.8c0-15,5-28.1,15-39.1C280.6,195.7,294.5,189.6,311.3,189.6z M311.2,203.3
		c-11.6,0-21.6,4.3-30,12.9c-8.3,8.6-12.5,19-12.5,31.1c0,7.9,1.9,15.2,5.7,22c3.8,6.8,8.9,12,15.4,15.7c6.5,3.7,13.6,5.5,21.3,5.5
		c7.7,0,14.9-1.8,21.3-5.5c6.5-3.7,11.6-8.9,15.4-15.7c3.8-6.8,5.7-14.1,5.7-22c0-12.2-4.2-22.6-12.6-31.1
		C332.8,207.6,322.8,203.3,311.2,203.3z"/>
	<path d="M388.4,192.4h14.3v15.9c4.3-6.3,8.7-10.9,13.5-14c4.7-3.1,9.6-4.6,14.8-4.6c3.9,0,8,1.2,12.4,3.7l-7.3,11.8
		c-2.9-1.3-5.4-1.9-7.4-1.9c-4.7,0-9.1,1.9-13.5,5.7c-4.3,3.8-7.6,9.8-9.9,17.8c-1.7,6.2-2.6,18.7-2.6,37.5V301h-14.3V192.4z"/>
	<path d="M546.7,265l11.8,6.2c-3.9,7.6-8.3,13.7-13.4,18.4c-5.1,4.7-10.8,8.2-17.1,10.6c-6.3,2.4-13.5,3.6-21.5,3.6
		c-17.7,0-31.6-5.8-41.6-17.4c-10-11.6-15-24.7-15-39.4c0-13.8,4.2-26.1,12.7-36.8c10.7-13.7,25.1-20.6,43.1-20.6
		c18.5,0,33.3,7,44.4,21.1c7.9,9.9,11.9,22.3,12,37.1h-97.7c0.3,12.6,4.3,23,12.1,31c7.8,8.1,17.4,12.1,28.9,12.1
		c5.5,0,10.9-1,16.1-2.9c5.2-1.9,9.7-4.5,13.3-7.7C538.4,277.2,542.4,272.1,546.7,265z M546.7,235.7c-1.9-7.5-4.6-13.4-8.1-17.9
		c-3.6-4.5-8.3-8.1-14.1-10.8c-5.9-2.7-12-4.1-18.5-4.1c-10.7,0-19.8,3.4-27.5,10.3c-5.6,5-9.8,12.5-12.7,22.5H546.7z"/>
	<path d="M588,192.4h14v18.8c4.9-6.9,9.9-12,15-15.2c7.1-4.3,14.5-6.4,22.3-6.4c5.3,0,10.3,1,15,3.1c4.7,2.1,8.6,4.8,11.6,8.2
		c3,3.4,5.6,8.3,7.8,14.7c4.6-8.5,10.5-15,17.4-19.4c7-4.4,14.5-6.6,22.5-6.6c7.5,0,14.1,1.9,19.9,5.7c5.7,3.8,10,9.1,12.8,15.9
		c2.8,6.8,4.2,17,4.2,30.5V301h-14.3v-59.3c0-11.6-0.8-19.6-2.5-24c-1.7-4.4-4.5-7.9-8.5-10.5c-4-2.7-8.8-4-14.4-4
		c-6.8,0-12.9,2-18.6,6c-5.6,4-9.7,9.3-12.3,16c-2.6,6.7-3.9,17.8-3.9,33.3V301h-14v-55.6c0-13.1-0.8-22-2.4-26.7
		c-1.6-4.7-4.5-8.5-8.5-11.3c-4.1-2.8-8.9-4.2-14.5-4.2c-6.5,0-12.5,1.9-18.1,5.8c-5.6,3.9-9.8,9.1-12.5,15.7
		c-2.7,6.6-4,16.7-4,30.2v46h-14V192.4z"/>
	<path d="M778,192.4h14v50.7c0,12.4,0.7,20.9,2,25.6c2,6.7,5.8,11.9,11.4,15.8c5.6,3.9,12.3,5.8,20.1,5.8c7.8,0,14.4-1.9,19.8-5.6
		c5.4-3.8,9.2-8.7,11.2-14.8c1.4-4.2,2.1-13.1,2.1-26.7v-50.7h14.3v53.3c0,15-1.7,26.3-5.2,33.8c-3.5,7.6-8.8,13.5-15.8,17.8
		c-7,4.3-15.8,6.4-26.4,6.4c-10.6,0-19.4-2.1-26.5-6.4s-12.4-10.3-15.9-18c-3.5-7.7-5.2-19.2-5.2-34.7V192.4z"/>
	<path d="M958.7,204.3l-9,9.3c-7.5-7.3-14.8-10.9-21.9-10.9c-4.5,0-8.4,1.5-11.7,4.5c-3.2,3-4.9,6.5-4.9,10.5c0,3.5,1.3,6.9,4,10.1
		c2.7,3.3,8.3,7.1,16.8,11.5c10.4,5.4,17.5,10.6,21.2,15.6c3.7,5.1,5.5,10.7,5.5,17.1c0,8.9-3.1,16.5-9.4,22.7
		c-6.3,6.2-14.1,9.3-23.5,9.3c-6.3,0-12.2-1.4-17.9-4.1c-5.7-2.7-10.4-6.5-14.1-11.3l8.8-10c7.1,8.1,14.7,12.1,22.7,12.1
		c5.6,0,10.4-1.8,14.3-5.4c3.9-3.6,5.9-7.8,5.9-12.7c0-4-1.3-7.6-3.9-10.7c-2.6-3.1-8.5-6.9-17.6-11.6c-9.8-5.1-16.5-10-20-15
		c-3.5-4.9-5.3-10.5-5.3-16.9c0-8.3,2.8-15.1,8.4-20.6c5.6-5.5,12.7-8.2,21.3-8.2C938.5,189.6,948.6,194.5,958.7,204.3z"/>
	<path d="M988.3,147.7c3.2,0,5.9,1.1,8.1,3.4c2.3,2.3,3.4,5,3.4,8.2c0,3.1-1.1,5.8-3.4,8.1c-2.3,2.3-5,3.4-8.1,3.4
		c-3.1,0-5.8-1.1-8.1-3.4c-2.3-2.3-3.4-5-3.4-8.1c0-3.2,1.1-5.9,3.4-8.2C982.5,148.8,985.2,147.7,988.3,147.7z M981.4,192.4h14V301
		h-14V192.4z"/>
	<path d="M1129.8,215l-11.1,6.9c-9.6-12.7-22.6-19.1-39.2-19.1c-13.2,0-24.2,4.3-33,12.8c-8.7,8.5-13.1,18.8-13.1,31
		c0,7.9,2,15.4,6,22.3c4,7,9.5,12.4,16.6,16.3s14.9,5.8,23.6,5.8c16,0,29-6.4,39.1-19.1l11.1,7.3c-5.2,7.8-12.2,13.9-20.9,18.2
		c-8.8,4.3-18.7,6.5-29.9,6.5c-17.2,0-31.4-5.5-42.7-16.4c-11.3-10.9-17-24.2-17-39.8c0-10.5,2.6-20.3,7.9-29.3
		c5.3-9,12.6-16.1,21.8-21.1c9.2-5.1,19.6-7.6,31-7.6c7.2,0,14.1,1.1,20.8,3.3c6.7,2.2,12.4,5.1,17,8.6
		C1122.6,205,1126.5,209.5,1129.8,215z"/>
</g>
</svg>
